<svg xmlns="http://www.w3.org/2000/svg" viewBox="0 0 170 210"><defs><style>.a{fill:#daab28;}.b{fill:#f9f9fa;}</style></defs><title>faq</title><path class="a" d="M85,154.92a90.35,90.35,0,0,1-26.75-4c-8.46,6.59-22.71,15.76-36.61,15.76,7.29-6.9,9.35-20.27,9.8-30.21-12-10.2-19.3-23.84-19.3-38.81C12.13,66,44.76,40.41,85,40.41S157.87,66,157.87,97.66,125.24,154.92,85,154.92Z"/><path class="b" d="M68.48,86.55h-3.4v-5.1H51.18L49.58,93.1H60.93l-0.65,4.65H48.88l-1.5,10.15c1.3,0.1,4.1.2,5.5,0.35l-0.45,3.85h-15l0.45-3.9c1.4-.15,2.7-0.25,4.05-0.35l3.9-26.55c-0.85-.05-2.05-0.15-4.05-0.35l0.45-3.85h27.5Z"/><path class="b" d="M96.39,107.85c1.55,0.05,3,.25,4.6.4l-0.45,3.85H86.29l0.5-3.9c1.2-.15,2.35-0.2,3.65-0.3l-1.2-6.25H76.34l-2.9,6.25c1.15,0.1,1.75.2,3,.35L76,112.1H63l0.45-3.9c1.5-.15,3-0.3,4.45-0.35l13-26.55c-0.9-.05-2-0.2-4-0.35l0.5-3.85H90.24Zm-10.9-26.2L78.09,97h10.6l-3.05-15.4H85.49Z"/><path class="b" d="M120.27,76.6c8.15,0,12,5.05,10.8,13.1l-1.4,10.25c-1.15,8-6.2,12.7-14.3,12.7H111c-8.25,0-12.15-5-11.05-13l1.4-10.25c1.15-8.1,6.2-12.85,14.5-12.85h4.45Z"/><path class="a" d="M115.67,81.25c-5,0-8.2,3.05-8.85,8l-1.6,11.2c-0.7,5.15,1.55,7.55,6.5,7.55h3.55c5,0,8.15-2.7,8.9-7.8l1.6-11.25c0.75-5.2-1.55-7.65-6.5-7.65h-3.6Z"/><path class="b" d="M109,113.7A86.75,86.75,0,0,1,120,112c4.85-.3,6.55,1.8,6.9,5.1l-4.1,2.6c-1-3.55-2.05-4.3-5.1-4.4a54.17,54.17,0,0,0-8.85.6Z"/></svg>