<svg id="Full" xmlns="http://www.w3.org/2000/svg" viewBox="0 0 468 60"><defs><style>.cls-1{fill:#dfe5da;}.cls-2,.cls-3{fill:#cbd6c8;}.cls-3{stroke:#cbd6c8;}.cls-3,.cls-5,.cls-6{stroke-miterlimit:10;}.cls-3,.cls-5{stroke-width:0.25px;}.cls-4{fill:#fff;}.cls-5{fill:#666;stroke:#666766;}.cls-6{fill:#d9ab28;stroke:#d9ab28;stroke-width:0.5px;}</style></defs><title>scholarsbank</title><g id="Homepage"><g id="Scholars_Bank" data-name="Scholars Bank"><g id="Layer_18" data-name="Layer 18"><rect class="cls-1" x="427" y="30.89" width="30" height="2"/><rect class="cls-1" x="349.16" y="30.89" width="20.07" height="2"/><polygon class="cls-2" points="372.93 45.03 377.85 43.19 374.34 21.35 368.82 19.29 372.93 45.03"/><path class="cls-2" d="M373.1,45.63,378,43.8a.65.65,0,0,0,.44-.77l-3.51-21.84a.63.63,0,0,0-.44-.44L369,18.69c-.49-.18-.84.35-.77.77l4.11,25.74c.13.79,1.33.46,1.21-.33l-2.36-14.79-1.41-8.86a6.41,6.41,0,0,1-.31-2c-.28.93-.92.44-.09.91a18,18,0,0,0,2.52.94c2.51.94,1.87.48,2.36,3.48l1.57,9.78c.42,2.62,1.05,5.3,1.28,7.95.14,1.59.64.11-.16.58a27.36,27.36,0,0,1-4.15,1.55C372,44.71,372.34,45.92,373.1,45.63Z"/><path class="cls-3" d="M424.42,13.74q1.94,1.11,1.94,2.41v2.41q0,1.3-1.94,2.41a17.46,17.46,0,0,1-5.27,1.76,37.85,37.85,0,0,1-7.24.65,37.85,37.85,0,0,1-7.24-.65A17.46,17.46,0,0,1,399.41,21q-1.94-1.11-1.94-2.41V16.15q0-1.3,1.94-2.41A17.48,17.48,0,0,1,404.67,12a40.72,40.72,0,0,1,14.48,0A17.47,17.47,0,0,1,424.42,13.74Zm1.94,8.84v3.2q0,1.3-1.94,2.41a17.47,17.47,0,0,1-5.27,1.76,37.89,37.89,0,0,1-7.24.65,37.89,37.89,0,0,1-7.24-.65,17.48,17.48,0,0,1-5.27-1.76q-1.94-1.11-1.94-2.41v-3.2A16.41,16.41,0,0,0,403.58,25a40.72,40.72,0,0,0,8.33.81,40.72,40.72,0,0,0,8.33-.81A16.41,16.41,0,0,0,426.35,22.58Zm0,7.22V33q0,1.3-1.94,2.41a17.44,17.44,0,0,1-5.27,1.76,37.85,37.85,0,0,1-7.24.65,37.85,37.85,0,0,1-7.24-.65,17.45,17.45,0,0,1-5.27-1.76q-1.94-1.11-1.94-2.41V29.8a16.42,16.42,0,0,0,6.11,2.39,40.72,40.72,0,0,0,8.33.81,40.72,40.72,0,0,0,8.33-.81A16.42,16.42,0,0,0,426.35,29.8Zm0,7.22v3.2q0,1.3-1.94,2.41a17.47,17.47,0,0,1-5.27,1.76,40.67,40.67,0,0,1-14.48,0,17.48,17.48,0,0,1-5.27-1.76q-1.94-1.11-1.94-2.41V37a16.41,16.41,0,0,0,6.11,2.39,40.72,40.72,0,0,0,8.33.81,40.72,40.72,0,0,0,8.33-.81A16.41,16.41,0,0,0,426.35,37Z"/><polygon class="cls-2" points="401.21 52.55 395.63 49.75 399.36 8.84 408.38 4.76 401.21 52.55"/><path class="cls-2" d="M401.53,52l-3.2-1.61c-.68-.34-2.31-1.42-2.06-.78-.35-.87.27-3,.35-3.88l1.72-18.92c.49-5.42,1.23-10.89,1.49-16.33.09-1.93-.24-1.28,1.42-1.83A78.32,78.32,0,0,0,408.7,5.3l-.92-.71-7.17,47.79c-.12.79,1.09,1.13,1.21.33L409,4.93a.63.63,0,0,0-.92-.71L399,8.3a.63.63,0,0,0-.31.54L395,49.75a.61.61,0,0,0,.31.54l5.58,2.81C401.61,53.45,402.25,52.37,401.53,52Z"/><polygon class="cls-2" points="379 48.88 384.19 42.71 379.07 15.5 372.16 12.63 379 48.88"/><path class="cls-2" d="M379.45,49.32c1.57-1.86,4.93-4.51,5.32-6.88.2-1.22-.62-3.32-.85-4.51l-1.6-8.5-1.56-8.29c-.28-1.47-.26-4.1-1-5.4-1.19-2.06-5.2-2.78-7.42-3.71-.48-.2-.85.36-.77.77L378.4,49c.15.79,1.35.46,1.21-.33l-3.79-20.06-2.37-12.54c-.2-1.08-.44-2.15-.61-3.23s0,.6-.71.41a18.54,18.54,0,0,1,2.46,1c.82.34,4.26,2,3.88,1.4.46.7.44,2.36.6,3.17l2.5,13.29c.57,3,2.26,7.24,1.94,10.31-.06.54,0,.2.15-.11-.2.62-1.21,1.44-1.62,1.93l-3.47,4.13C378,49,378.93,49.93,379.45,49.32Z"/><polygon class="cls-2" points="385.74 51.25 391.55 45.03 387.23 12.31 377.85 7.86 385.74 51.25"/><path class="cls-2" d="M386.19,51.69c2.14-2.29,5.77-4.6,5.84-7.77.11-5.57-1.54-11.69-2.27-17.21l-1.23-9.28c-.17-1.32,0-3.77-.66-5-1.33-2.49-7.11-3.91-9.71-5.14a.63.63,0,0,0-.92.71l7.9,43.39c.14.79,1.35.46,1.21-.33l-7.9-43.39-.92.71,6,2.84a13.6,13.6,0,0,1,3.14,1.49c.21.2-.35-.68,0,.18.67,1.54.53,4,.75,5.66l1.14,8.63c.7,5.28,1.31,10.57,2.09,15.84.28,1.86.34,1.43-.34,2.39a55.54,55.54,0,0,1-5,5.38C384.75,51.4,385.64,52.28,386.19,51.69Z"/><polygon class="cls-2" points="392.87 52.55 394.29 48.88 394.29 12.37 386.16 4.69 392.87 52.55"/><path class="cls-2" d="M393.47,52.72c1.37-3.54,1.44-5.58,1.44-9.36V16.17c0-1,.35-2.78,0-3.76-1.05-2.93-6-6-8.31-8.15a.63.63,0,0,0-1,.61l6.7,47.86c.11.79,1.32.46,1.21-.33l-6.7-47.86-1,.61,4.77,4.51a22.21,22.21,0,0,1,2.68,2.53c.75,1,.32,0,.49.5.4,1.2,0,3.25,0,4.49V42.6c0,3.88,0,6.18-1.4,9.79C392,53.14,393.18,53.46,393.47,52.72Z"/><polyline class="cls-4" points="394.33 8.68 399.91 5.2 399.91 52.2 394.33 49.64"/><path class="cls-1" d="M394.25,8.55l1.22-1.16c.41-.39.83-.74,1.24-1.12.82-.75,1.68-1.44,2.53-2.16l1.58-1.34.37,2.42c.15,1,.25,2,.36,2.94s.24,2,.31,2.94c.14,2,.36,3.92.43,5.87s.23,3.92.24,5.87.07,3.92.08,5.87l-.09,5.87c0,1-.08,2-.12,2.94l-.14,2.94c0,1-.14,2-.21,2.94l-.23,2.94c-.23,2-.39,3.92-.7,5.87l-.31,2-1.39-.88c-.87-.55-1.74-1.11-2.6-1.7s-1.7-1.2-2.55-1.81l.13-.27L400,52l-.26.16-.12-23.5.12-23.5.28.16-5.6,3.45Z"/><rect class="cls-1" x="9" y="30.89" width="30" height="2"/><path class="cls-5" d="M68.9,41.84l-1.52.1V50.3c0,3.08-1.54,4.6-4.64,4.6H61.46c-3.14,0-4.7-1.52-4.7-4.6V41.94c-.54,0-1.08-.06-1.66-.1V40.7h5v1.14c-.62,0-1.18.08-1.76.1v8.48a2.85,2.85,0,0,0,3.18,3.16h1.18a2.86,2.86,0,0,0,3.18-3.16v-8.5c-.54,0-1.1,0-1.68-.08V40.7H68.9Z"/><path class="cls-5" d="M75.82,54.9c-3.14,0-4.94-1.9-5-4.88V45.46a4.56,4.56,0,0,1,5-4.94H77.5c3.12,0,4.92,1.9,4.92,4.94V50a4.54,4.54,0,0,1-4.92,4.9Zm1.54-1.44a3.16,3.16,0,0,0,3.48-3.4V45.38a3.17,3.17,0,0,0-3.48-3.44H75.9a3.19,3.19,0,0,0-3.46,3.44v4.68a3.13,3.13,0,0,0,3.46,3.4Z"/><path class="cls-5" d="M84.68,41.08c.06-.42.34-.58.78-.5.64.12.94.26.94.8a5.43,5.43,0,0,1-1.68,3.12l-.38-.3a4.25,4.25,0,0,0,.78-2l-.6-.2Z"/><path class="cls-5" d="M87.66,46.76c0-1.76,1.3-2.54,3.82-2.54h.32a11.12,11.12,0,0,1,4,.76v2.2H94.56l-.14-1.42a6.47,6.47,0,0,0-2.72-.5c-1.84,0-2.66.46-2.66,1.54V47c0,1.22.68,1.26,3.46,1.82s3.5,1,3.5,2.66v.46c0,2.16-1.24,3-3.66,3h-.78c-.94,0-3.08-.12-3.9-1.2v-2h1.16l.08,1.24c.48.8,2,.9,2.64.9h.68c1.58,0,2.34-.5,2.34-1.9v-.28c0-1.18-.68-1.34-3.34-1.84-2.84-.54-3.56-1.06-3.56-2.66Z"/><path class="cls-5" d="M107.9,41.84c-.58,0-1.12.08-1.68.1V53.46c.56,0,1.1.06,1.68.1V54.7h-5V53.56c.6,0,1.14-.08,1.7-.1V41.94c-.56,0-1.14-.06-1.72-.1V40.7h5Z"/><path class="cls-5" d="M119.9,53.5c.18,0,.64.06,1.66.12V54.7h-3.18v-7c0-1.8-.26-2.2-1.62-2.2h-.24a7,7,0,0,0-3.92,1.74v6.28c.48,0,1,.06,1.52.1V54.7h-4.56V53.62c.56,0,1-.08,1.52-.1V45.64c-.46,0-.94-.06-1.4-.1V44.46h2.92v1.82a7.9,7.9,0,0,1,4.62-2.06h.22c1.74,0,2.46.64,2.46,2.72Z"/><path class="cls-5" d="M123.06,46.76c0-1.76,1.3-2.54,3.82-2.54h.32a11.12,11.12,0,0,1,4,.76v2.2H130l-.14-1.42a6.47,6.47,0,0,0-2.72-.5c-1.84,0-2.66.46-2.66,1.54V47c0,1.22.68,1.26,3.46,1.82s3.5,1,3.5,2.66v.46c0,2.16-1.24,3-3.66,3H127c-.94,0-3.08-.12-3.9-1.2v-2h1.16l.08,1.24c.48.8,2,.9,2.64.9h.68c1.58,0,2.34-.5,2.34-1.9v-.28c0-1.18-.68-1.34-3.34-1.84-2.84-.54-3.56-1.06-3.56-2.66Z"/><path class="cls-5" d="M137.28,53.6c.72,0,1.18,0,1.9-.06v.9a7.54,7.54,0,0,1-2.58.46h-.2c-1.54,0-2.16-.76-2.16-2.74V45.62h-1.36V44.46H134c.32,0,.38-.12.38-.42V41.48a13.55,13.55,0,0,1,1.42-.14v3.12h3.06v1.16h-3.06V51.5c0,1.66.26,2.1,1.34,2.1Z"/><path class="cls-5" d="M143.94,53.52c.48,0,1,.06,1.52.1V54.7H140.9V53.62c.56,0,1-.08,1.52-.1V45.64c-.46,0-.94-.06-1.4-.1V44.46h2.92Zm-1.76-11.9a1,1,0,0,1,1.9,0,1,1,0,0,1-1.9,0Z"/><path class="cls-5" d="M150.82,53.6c.72,0,1.18,0,1.9-.06v.9a7.54,7.54,0,0,1-2.58.46h-.2c-1.54,0-2.16-.76-2.16-2.74V45.62h-1.36V44.46h1.08c.32,0,.38-.12.38-.42V41.48a13.55,13.55,0,0,1,1.42-.14v3.12h3.06v1.16H149.3V51.5c0,1.66.26,2.1,1.34,2.1Z"/><path class="cls-5" d="M164.66,53.52c.34,0,.84,0,1.56.1V54.7h-3.08v-2a8.19,8.19,0,0,1-4.6,2h-.24c-1.82,0-2.44-.56-2.44-2.72V45.64l-1.66-.1V44.46h3.18v6.76c0,1.78.24,2.18,1.6,2.18h.24a7.06,7.06,0,0,0,3.92-1.72v-6l-1.66-.1V44.46h3.18Z"/><path class="cls-5" d="M171.34,53.6c.72,0,1.18,0,1.9-.06v.9a7.54,7.54,0,0,1-2.58.46h-.2c-1.54,0-2.16-.76-2.16-2.74V45.62h-1.36V44.46H168c.32,0,.38-.12.38-.42V41.48a13.55,13.55,0,0,1,1.42-.14v3.12h3.06v1.16h-3.06V51.5c0,1.66.26,2.1,1.34,2.1Z"/><path class="cls-5" d="M178,53.52c.48,0,1,.06,1.52.1V54.7H175V53.62c.56,0,1-.08,1.52-.1V45.64c-.46,0-.94-.06-1.4-.1V44.46H178Zm-1.76-11.9a1,1,0,0,1,1.9,0,1,1,0,0,1-1.9,0Z"/><path class="cls-5" d="M185.24,54.9c-2.9,0-4.24-1.34-4.24-4.08V48.34c0-2.78,1.32-4.12,4.24-4.12h1c2.86,0,4.18,1.34,4.18,4.12v2.48c0,2.74-1.34,4.08-4.18,4.08Zm1-1.16c1.76,0,2.7-.88,2.7-2.56V48c0-1.7-.94-2.58-2.7-2.58h-1c-1.76,0-2.68.88-2.68,2.58v3.22c0,1.68.92,2.56,2.68,2.56Z"/><path class="cls-5" d="M202.36,53.5c.18,0,.64.06,1.66.12V54.7h-3.18v-7c0-1.8-.26-2.2-1.62-2.2H199a7,7,0,0,0-3.92,1.74v6.28c.48,0,1,.06,1.52.1V54.7H192V53.62c.56,0,1-.08,1.52-.1V45.64c-.46,0-.94-.06-1.4-.1V44.46h2.92v1.82a7.9,7.9,0,0,1,4.62-2.06h.22c1.74,0,2.46.64,2.46,2.72Z"/><path class="cls-5" d="M214.26,53.52c.32,0,.8,0,1.5.1V54.7h-3V53.16a6,6,0,0,1-4.08,1.7h-.36c-2,0-2.8-.44-2.8-2.66v-.54c0-2.28,1.14-2.6,2.84-2.78s3-.28,4.4-.4V47.9c0-2.06-.74-2.56-2.48-2.56a9.13,9.13,0,0,0-2.88.42l-.12,1.36h-1.12V44.84a15.67,15.67,0,0,1,4.16-.62H211c2.4,0,3.3,1.28,3.3,3.56Zm-5,.2a5.26,5.26,0,0,0,3.5-1.6v-2.8c-.88.08-2.76.24-3.82.38-1.42.18-1.86.52-1.86,1.84V52c0,1.34.4,1.72,1.84,1.72Z"/><path class="cls-5" d="M219.88,53.52c.48,0,1,.06,1.52.1V54.7h-4.56V53.62c.56,0,1-.08,1.52-.1V41.88c-.46,0-.94-.06-1.4-.1V40.7h2.92Z"/><path class="cls-5" d="M234.92,40.7c2.78,0,4.3,1.3,4.3,3.84v1a3.44,3.44,0,0,1-2.68,3.5,43.92,43.92,0,0,1,2.24,4.46l1.7.1V54.7h-3.4V53.48a30.39,30.39,0,0,0-2-4.24h-3.82V53.5l1.56.06V54.7H227.9V53.56c.6,0,1.18-.08,1.78-.1V41.94c-.38,0-1,0-1.8-.1V40.7Zm0,7.16c1.82,0,2.84-1,2.84-2.48v-.72c0-1.66-1-2.64-2.84-2.64h-3.64v5.84Z"/><path class="cls-5" d="M246.66,44.22c2.72,0,4.06,1.26,4.06,3.82v2.22H243.2v1c0,1.72,1,2.54,2.68,2.54h.86a2.45,2.45,0,0,0,2.44-1.18l.08-.26h1.16v1a4.5,4.5,0,0,1-3.68,1.58h-.8c-2.94,0-4.22-1.3-4.22-4.1V48.24c0-2.64,1.52-4,4.28-4Zm2.68,3.6c0-1.66-1-2.52-2.72-2.52H246A2.48,2.48,0,0,0,243.2,48v1.22h6.14Z"/><path class="cls-5" d="M259.88,44.22c1.74,0,2.66,1,2.66,3.48v3.86c0,2.24-1.08,3.3-2.82,3.3h-.38a6.89,6.89,0,0,1-4.1-1.22v3.3L257,57v1.08h-4.8V57c.56,0,1-.08,1.52-.1V45.64c-.46,0-.94-.06-1.4-.1V44.46h2.92V45.9a6.94,6.94,0,0,1,4.26-1.68ZM261,48.14c0-1.86-.44-2.64-1.8-2.64h-.34a5.75,5.75,0,0,0-3.64,1.44V52.5a5.43,5.43,0,0,0,3.52,1.16h.4c1.34,0,1.86-.84,1.86-2.68Z"/><path class="cls-5" d="M268.9,54.9c-2.9,0-4.24-1.34-4.24-4.08V48.34c0-2.78,1.32-4.12,4.24-4.12h1c2.86,0,4.18,1.34,4.18,4.12v2.48c0,2.74-1.34,4.08-4.18,4.08Zm1-1.16c1.76,0,2.7-.88,2.7-2.56V48c0-1.7-.94-2.58-2.7-2.58h-1c-1.76,0-2.68.88-2.68,2.58v3.22c0,1.68.92,2.56,2.68,2.56Z"/><path class="cls-5" d="M276.32,46.76c0-1.76,1.3-2.54,3.82-2.54h.32a11.12,11.12,0,0,1,4,.76v2.2h-1.22l-.14-1.42a6.47,6.47,0,0,0-2.72-.5c-1.84,0-2.66.46-2.66,1.54V47c0,1.22.68,1.26,3.46,1.82s3.5,1,3.5,2.66v.46c0,2.16-1.24,3-3.66,3h-.78c-.94,0-3.08-.12-3.9-1.2v-2h1.16l.08,1.24c.48.8,2,.9,2.64.9h.68c1.58,0,2.34-.5,2.34-1.9v-.28c0-1.18-.68-1.34-3.34-1.84-2.84-.54-3.56-1.06-3.56-2.66Z"/><path class="cls-5" d="M289.44,53.52c.48,0,1,.06,1.52.1V54.7H286.4V53.62c.56,0,1-.08,1.52-.1V45.64c-.46,0-.94-.06-1.4-.1V44.46h2.92Zm-1.76-11.9a1,1,0,0,1,1.9,0,1,1,0,0,1-1.9,0Z"/><path class="cls-5" d="M296.32,53.6c.72,0,1.18,0,1.9-.06v.9a7.53,7.53,0,0,1-2.58.46h-.2c-1.54,0-2.16-.76-2.16-2.74V45.62h-1.36V44.46H293c.32,0,.38-.12.38-.42V41.48a13.56,13.56,0,0,1,1.42-.14v3.12h3.06v1.16H294.8V51.5c0,1.66.26,2.1,1.34,2.1Z"/><path class="cls-5" d="M303.84,54.9c-2.9,0-4.24-1.34-4.24-4.08V48.34c0-2.78,1.32-4.12,4.24-4.12h1c2.86,0,4.18,1.34,4.18,4.12v2.48c0,2.74-1.34,4.08-4.18,4.08Zm1-1.16c1.76,0,2.7-.88,2.7-2.56V48c0-1.7-.94-2.58-2.7-2.58h-1c-1.76,0-2.68.88-2.68,2.58v3.22c0,1.68.92,2.56,2.68,2.56Z"/><path class="cls-5" d="M313.66,46.42c1.12-1.44,2-2.06,3.48-2.06H318v1.4l-1.24.06a3.61,3.61,0,0,0-3.06,1.62v6.08c.48,0,1,.06,1.6.1V54.7h-4.64V53.62c.56,0,1-.08,1.52-.1V45.64c-.46,0-.94-.06-1.4-.1V44.46h2.92Z"/><path class="cls-5" d="M331.18,45.54c-.6.06-1.12.08-1.62.12l-4.7,10.9c.48,0,.82,0,1.28.06v1.06h-4.76V56.62c.68-.06,1.38-.08,2-.08l.72-1.64-3.94-9.28c-.42,0-.84,0-1.34-.08V44.46h4.68v1.08c-.62,0-1.12.06-1.72.08l3.1,7.64h0l3.3-7.64-1.42-.08V44.46h4.42Z"/><path class="cls-6" d="M46.35,27.36a13.48,13.48,0,0,0,5.92,1h.63c3.78,0,5-.76,5-3.49v-1c0-2.14-.76-2.86-3.74-3.61l-7.48-1.76c-4.62-1.3-6-2.86-6-7.48V10.6c0-5.71,3.07-8.07,10.42-8.07h1.22a32,32,0,0,1,10.5,1.72V12H58.24l-.67-4.07A12.27,12.27,0,0,0,52.44,7H51.18c-3.23,0-4.49.84-4.49,3.28v.42c0,1.68.63,2.52,2.52,3l8.74,2c4.24,1.09,5.71,2.9,5.71,7.14v1.81c0,5.76-3,8.15-10.42,8.15H51.6c-4.16,0-6.47-.63-10.67-2.14V23.41h4.79Z"/><path class="cls-6" d="M86.8,29.88a13.9,13.9,0,0,1-8.4,3H76c-6.13,0-8.61-2.9-8.61-9V18.66c0-5.75,3.49-8.82,8.95-8.82h1.93a26.88,26.88,0,0,1,8.28,1.34v7H82.39l-.5-3.61a16.77,16.77,0,0,0-4.7-.5c-2.77,0-4.24,1.26-4.24,4.87v5.33c0,3.4,1.55,4.28,4.16,4.28h1.18c1.85,0,3.28-.55,3.95-2.1l.17-.59H86.8Z"/><path class="cls-6" d="M115.44,28.49V32.4h-8.53V18.75c0-3.53-.34-4.2-2.81-4.2h-.5c-1.89,0-3.91,1.05-5.92,2.48V28.2c.88,0,1.81.17,2.81.29V32.4H89.32V28.49c1-.13,1.93-.25,2.81-.29v-21c-.84-.08-1.76-.21-2.65-.34V3h8.19V13.75c2.56-1.93,5.54-3.91,8.82-3.91H107c3.65,0,5.5,1.76,5.5,6V28.16Z"/><path class="cls-6" d="M127.5,32.9c-7.06,0-10-3.15-10-10V20c0-6.93,2.94-10.17,10-10.17h1.81c6.93,0,9.83,3.23,9.83,10.17v2.94c0,6.81-2.94,10-9.79,10Zm1.72-4.12c2.86,0,4.37-1.39,4.37-4.07V18.2c0-2.81-1.51-4.24-4.37-4.24h-1.89c-2.86,0-4.33,1.43-4.33,4.24v6.51c0,2.69,1.47,4.07,4.33,4.07Z"/><path class="cls-6" d="M150,28.2c.88,0,1.81.17,2.81.29V32.4H141.65V28.49c1-.13,1.93-.25,2.81-.29v-21c-.84-.08-1.76-.21-2.65-.34V3H150Z"/><path class="cls-6" d="M175.5,28.16c.67.08,1.6.17,2.77.34v3.86H170V29.54c-2.39,1.93-4.49,3.19-7.77,3.19h-.71c-4,0-6-.8-6-6.13V26c0-4.87,2.69-5.71,6.3-6.17,3.15-.42,4.87-.55,8.23-.92v-1c0-3.15-1.22-4-4-4a17.15,17.15,0,0,0-4.54.55l-.34,2.44h-4.12V11a46.4,46.4,0,0,1,9.58-1.13h1.72c4.92,0,7.27,2.94,7.27,7.81Zm-10.92.55c2,0,3.82-1.22,5.38-2.77V21.81c-1.43.17-3.95.42-5.75.71-2.23.34-3.07,1-3.07,2.86V26c0,2,.71,2.69,2.81,2.69Z"/><path class="cls-6" d="M188.44,14.38c1.93-2.48,3.65-4.33,6.6-4.33h2.06v5.13l-3.82.25a6,6,0,0,0-4.83,2.31V28.2c.88,0,1.81.17,3.15.29V32.4H180.08V28.49c1-.13,1.93-.25,2.81-.29V14.59c-.84,0-1.76-.21-2.65-.29V10.35h8.19Z"/><path class="cls-6" d="M198.85,15.85c0-4.12,2.86-6,8.65-6h.76a28.23,28.23,0,0,1,9.16,1.51v5.46h-4.54l-.38-2.6a12.69,12.69,0,0,0-4.37-.67c-2.86,0-4.33.67-4.33,2.31v.29c0,1.89,1.34,1.81,7.27,2.94,5.21,1,6.93,2.48,6.93,5.67V26c0,4.87-2.77,6.93-8.44,6.93h-1.64c-2.48,0-6.89-.29-9.07-2.39V25.3h4.37l.21,2.1c.84,1.22,3.07,1.6,4.33,1.6h1.3c2.39,0,3.74-.76,3.74-2.77v-.5c0-1.72-1.18-2.06-6.85-3.11s-7.1-2.65-7.1-5.76Z"/><path class="cls-6" d="M221.83,4.17a1.74,1.74,0,0,1,2.27-1.51c2.18.34,3.11.88,3.11,2.56,0,2.81-2.39,5.88-4.71,8.19l-1.39-1.05a12.37,12.37,0,0,0,1.64-4.45l-1.55-.67Z"/><path class="cls-6" d="M264.63,11.52c0,3-1.26,4.92-3.61,5.8,2.6.67,4.16,2.73,4.16,6.43v.63c0,6.13-2.81,8-9.62,8H240.09V28.28c1.43-.21,2.48-.29,3.28-.38V7.49c-.8-.08-1.93-.17-3.36-.38V3h14.91c6.93,0,9.7,2.44,9.7,8.11Zm-9.91,3.74c3,0,4.28-.76,4.28-3.28V11.4c0-2.56-.76-3.65-3.91-3.65h-5.92v7.52Zm4.58,7.65c0-2.52-1.6-3.23-4.58-3.23h-5.55v8h5.55c3.07,0,4.58-1.34,4.58-4.07Z"/><path class="cls-6" d="M288.86,28.16c.67.08,1.6.17,2.77.34v3.86h-8.32V29.54c-2.39,1.93-4.49,3.19-7.77,3.19h-.71c-4,0-6-.8-6-6.13V26c0-4.87,2.69-5.71,6.3-6.17,3.15-.42,4.87-.55,8.23-.92v-1c0-3.15-1.22-4-4-4a17.16,17.16,0,0,0-4.54.55l-.34,2.44h-4.12V11a46.39,46.39,0,0,1,9.58-1.13h1.72c4.92,0,7.27,2.94,7.27,7.81Zm-10.92.55c2,0,3.82-1.22,5.38-2.77V21.81c-1.43.17-3.95.42-5.75.71-2.23.34-3.07,1-3.07,2.86V26c0,2,.71,2.69,2.81,2.69Z"/><path class="cls-6" d="M316.58,28.16c.46,0,1.34.17,3,.34V32.4H311V18.75c0-3.53-.34-4.2-2.81-4.2h-.5c-1.89,0-3.91,1.05-5.92,2.48V28.2c.88,0,1.81.17,2.81.29V32.4H293.43V28.49c1-.13,1.93-.25,2.81-.29V14.59c-.84,0-1.76-.21-2.65-.29V10.35h8.19v3.4c2.56-1.93,5.54-3.91,8.82-3.91h.46c3.66,0,5.5,1.76,5.5,6Z"/><path class="cls-6" d="M329.51,18.58h5l2.73-4.12c-.67,0-1.39-.13-2.23-.17V10.35H346v3.95c-1,.13-1.85.25-2.73.29l-4.58,6.13,5,7.48c.63.08,1.39.17,2.56.34V32.4h-8.36V28.53l-3.28-5.33h-5v5c.88,0,1.81.17,2.81.29V32.4H321.15V28.49c1-.13,1.93-.25,2.81-.29v-21c-.84-.08-1.76-.21-2.65-.34V3h8.19Z"/></g></g></g></svg>
