<svg xmlns="http://www.w3.org/2000/svg" viewBox="0 0 170 210"><defs><style>.a{fill:#daab28;}</style></defs><title>open</title><path class="a" d="M135.86,110H115.54V59.85A30.46,30.46,0,0,0,85.12,29.44h0A30.42,30.42,0,0,0,54.69,59.85v6.93H34.37V59.85A50.74,50.74,0,0,1,85.11,9.11h0a50.74,50.74,0,0,1,50.73,50.73V110Z"/><path class="a" d="M85,198.89a59.68,59.68,0,1,1,23.29-4.71A59.47,59.47,0,0,1,85,198.89Zm0-99.35a39.51,39.51,0,1,0,39.51,39.51A39.56,39.56,0,0,0,85,99.54Z"/><circle class="a" cx="85.2" cy="139.23" r="16.77"/></svg>