<svg xmlns="http://www.w3.org/2000/svg" viewBox="0 0 170 210"><defs><style>.a{fill:#daab28;}</style></defs><title>scholarly</title><path class="a" d="M83.19,116.61L42.9,104.11v26.31c0,10.53,18.91,15.79,42.1,15.79s42.1-5.26,42.1-15.79V104.11l-40.29,12.5a7.37,7.37,0,0,1-3.78,0h0.16Zm3-67.27a4.69,4.69,0,0,0-2.14,0l-80.42,25a3.71,3.71,0,0,0,0,7.07l18.26,5.76v18.58a10.58,10.58,0,0,0-5.26,9,9.39,9.39,0,0,0,1.48,5.26,10.93,10.93,0,0,0-1.48,5.26v27.14c0,5.76,21.05,5.76,21.05,0V125.33a9.39,9.39,0,0,0-1.48-5.26,10.93,10.93,0,0,0,1.48-5.26,10.37,10.37,0,0,0-5.26-9V90.46l51.48,16.12a4.69,4.69,0,0,0,2.14,0l80.42-25a3.71,3.71,0,0,0,0-7.07Zm-1,33.72c-5.76,0-10.53-2.3-10.53-5.26s4.77-5.26,10.53-5.26,10.53,2.3,10.53,5.26S90.92,83.06,85.16,83.06Z"/></svg>