<svg xmlns="http://www.w3.org/2000/svg" width="266" height="48" viewBox="0 0 265.9 47.5"><style>.a{fill:#fff;}.a:hover{fill:#ddd}</style><g class="a"><path d="M32.1 9.1c-1.1 0.1-2.3 0.1-3.3 0.2v18.4c0 6.8-3.4 10.1-10.2 10.1h-2.8c-6.9 0-10.3-3.3-10.3-10.1V9.3C4.2 9.3 3 9.2 1.7 9.1V6.6h11v2.5c-1.4 0.1-2.6 0.2-3.9 0.2V28c0 4.4 2.4 7 7 7h2.6c4.5 0 7-2.5 7-7V9.3c-1.2 0-2.4-0.1-3.7-0.2V6.6h10.3V9.1z" /><path d="M47.3 37.8c-6.9 0-10.9-4.2-10.9-10.7v-10c0-6.7 4-10.9 10.9-10.9H51c6.9 0 10.8 4.2 10.8 10.9v10c0 6.6-4 10.8-10.8 10.8H47.3zM50.7 34.7c4.8 0 7.6-2.7 7.7-7.5V16.9c0-4.8-2.9-7.6-7.7-7.6h-3.2c-4.8 0-7.6 2.9-7.6 7.6v10.3c0 4.8 2.9 7.5 7.6 7.5H50.7z" /><path d="M77.5 37.4v-2.5c1.9-0.1 3.1-0.2 3.7-0.2V9.3c-1.3 0-2.5-0.1-3.8-0.2V6.6h11.4v2.5c-1.4 0.1-2.7 0.2-4.1 0.3v25.2h13.6l0.4-5.5h2.4v8.3H77.5z" /><path d="M111.7 34.8c1.1 0 2.1 0.1 3.3 0.2v2.4h-10V35c1.2-0.1 2.3-0.2 3.3-0.2V17.5c-1 0-2.1-0.1-3.1-0.2v-2.4h6.4V34.8zM107.8 8.6c0-1.2 0.9-1.9 2.1-1.9 1.1 0 2.1 0.7 2.1 1.9 0 1.1-0.9 1.9-2.1 1.9C108.8 10.5 107.8 9.8 107.8 8.6z" /><path d="M123.1 17.2c3.5-2.2 5.2-2.9 9.1-2.9h0.8c3.8 0 6.2 2.3 6.2 7.2v8.5c0 5.4-2.8 7.7-7 7.7h-0.8c-4.2 0-7-0.2-11.7-0.5v-28c-1 0-2.1-0.1-3.1-0.2V6.6h6.4V17.2zM135.8 23c0-4-1.1-6-4.1-6h-0.8c-2.9 0-4.5 0.4-7.8 2.6v15.3c2.8 0.4 4.6 0.4 7.3 0.4h0.7c3 0 4.6-1.7 4.6-5.8V23z" /><path d="M149.5 19.2c2.5-3.2 4.5-4.5 7.7-4.5h1.8v3.1l-2.7 0.1c-2.6 0-4.5 0.8-6.7 3.6v13.4c1.1 0 2.1 0.1 3.5 0.2v2.4h-10.2V35c1.2-0.1 2.3-0.2 3.3-0.2V17.5c-1 0-2.1-0.1-3.1-0.2v-2.4h6.4V19.2z" /><path d="M179.9 34.8c0.7 0 1.8 0.1 3.3 0.2v2.4h-6.6V34c-3 2.3-5.2 3.7-9 3.7h-0.8c-4.5 0-6.2-1-6.2-5.9v-1.2c0-5 2.5-5.7 6.2-6.1 3.5-0.4 6.7-0.6 9.7-0.9v-1.3c0-4.5-1.6-5.6-5.5-5.6 -1.9 0-4.4 0.2-6.3 0.9l-0.3 3H162v-5c2.6-0.9 6.8-1.4 9.2-1.4h1.5c5.3 0 7.3 2.8 7.3 7.8V34.8zM168.8 35.2c2.9 0 5-1.3 7.7-3.5v-6.2c-1.9 0.2-6.1 0.5-8.4 0.8 -3.1 0.4-4.1 1.1-4.1 4v1c0 2.9 0.9 3.8 4 3.8H168.8z" /><path d="M192.2 19.2c2.5-3.2 4.5-4.5 7.7-4.5h1.8v3.1l-2.7 0.1c-2.6 0-4.5 0.8-6.7 3.6v13.4c1.1 0 2.1 0.1 3.5 0.2v2.4h-10.2V35c1.2-0.1 2.3-0.2 3.3-0.2V17.5c-1 0-2.1-0.1-3.1-0.2v-2.4h6.4V19.2z" /><path d="M210.9 34.8c1.1 0 2.1 0.1 3.3 0.2v2.4h-10V35c1.2-0.1 2.3-0.2 3.3-0.2V17.5c-1 0-2.1-0.1-3.1-0.2v-2.4h6.4V34.8zM207.1 8.6c0-1.2 0.9-1.9 2.1-1.9 1.1 0 2.1 0.7 2.1 1.9 0 1.1-0.9 1.9-2.1 1.9C208 10.5 207.1 9.8 207.1 8.6z" /><path d="M228.4 14.3c6 0 8.9 2.8 8.9 8.4v4.9h-16.5v2.1c0 3.8 2.2 5.6 5.9 5.6h1.9c2.5 0 4.4-0.7 5.4-2.6l0.2-0.6h2.6v2.2c-1.7 2.4-4.9 3.5-8.1 3.5h-1.8c-6.5 0-9.3-2.9-9.3-9v-5.6c0-5.8 3.3-8.8 9.4-8.8H228.4zM234.3 22.3c0-3.7-2.2-5.5-6-5.5H227c-3.9 0-6.2 2.1-6.2 5.9v2.7h13.5V22.3z" /><path d="M242.2 19.9c0-3.9 2.9-5.6 8.4-5.6h0.7c2 0 6.1 0.4 8.8 1.7v4.8h-2.7l-0.3-3.1c-1.8-0.8-3.9-1.1-6-1.1 -4 0-5.9 1-5.9 3.4v0.4c0 2.7 1.5 2.8 7.6 4 5.8 1.1 7.7 2.1 7.7 5.9v1c0 4.8-2.7 6.6-8.1 6.6h-1.7c-2.1 0-6.8-0.3-8.6-2.6v-4.5h2.6l0.2 2.7c1.1 1.8 4.4 2 5.8 2h1.5c3.5 0 5.1-1.1 5.1-4.2v-0.6c0-2.6-1.5-2.9-7.3-4 -6.2-1.2-7.8-2.3-7.8-5.9V19.9z" /><rect width="300" height="100" fill="rgba(0,0,0,0)" /></g></svg>
