<svg xmlns="http://www.w3.org/2000/svg" width="180" height="39" viewBox="0 0 180 39"><style type="text/css">.st20{fill:#FFFFFF;}</style><title>UO_signature</title><rect x="56.81" y="0.33" class="st20" width="0.56" height="38.35"></rect><path class="st20" d="M73.57 25.93c0-4.34 1.66-8.15 5.78-8.15 4.21 0 5.83 3.87 5.83 8.15 0 4.39-1.68 8.5-5.83 8.5S73.57 30.56 73.57 25.93M70.26 25.93c0 5.18 3.82 9.57 9.08 9.57 5.33 0 9.11-4.42 9.11-9.57s-3.82-9.2-9.11-9.2C74.04 16.74 70.26 20.84 70.26 25.93M96.67 26.25h-2.16v-7.78c0.56-0.15 1.13-0.25 1.71-0.29h0.64c2.77 0 4.06 1.24 4.06 3.82C100.93 24.65 99.55 26.25 96.67 26.25M102.27 35.12h4.26v-0.8l-1.66-0.47c-0.72-0.51-1.33-1.18-1.76-1.96l-1.74-2.74c-0.9-1.48-1.32-2.05-1.85-2.4 2.38-0.52 4.46-2.49 4.46-4.83 0-3.13-2.86-4.7-6.65-4.7h-8.14v0.78l1.66 0.39c0.53 0.11 0.72 0.18 0.72 0.64v14.32c0 0.39-0.08 0.43-0.75 0.58l-1.63 0.35v0.84h7.68v-0.81l-1.68-0.34c-0.59-0.12-0.68-0.17-0.68-0.61v-6.02h2.74l2.64 4.57c0.86 1.48 1.79 2.81 2.41 3.21M118.71 17.2H107.5v0.84l1.67 0.34c0.64 0.11 0.72 0.2 0.72 0.61v14.37c0 0.39-0.08 0.46-0.75 0.58l-1.63 0.35v0.84h13.84l0.81-5.64h-0.76c-0.36 1.3-1.06 3.01-1.66 3.73 -0.78 0.61-2.57 0.9-3.67 0.9h-0.66c-0.87 0-1.74-0.07-2.61-0.21v-7.54h3.37c0.81 0.58 1.29 1.59 1.54 2.77h0.56v-6.6h-0.56c-0.14 0.9-0.76 2.17-1.54 2.66h-3.37v-6.8c0.72-0.12 1.45-0.17 2.19-0.17h0.25c1.71 0 3.47 0.46 4.09 0.86 0.53 0.75 0.98 2.2 1.32 3.52h0.75l-0.52-5.74c-0.73 0.2-1.48 0.31-2.24 0.32M139.11 23.18h0.76l-0.33-6.24h-0.59l-0.53 0.75c-0.76-0.39-2.07-0.96-4.76-0.96 -6.06 0-10.09 3.88-10.09 9.08s3.52 9.6 9 9.6c3.05 0 5.97-0.81 7.26-1.53l-0.13-0.55v-5.35c0-0.58 0.19-0.72 0.73-0.95l0.47-0.2v-0.67h-6.73v0.78l2.01 0.5c0.59 0.14 0.7 0.29 0.7 0.69v5.15c-0.7 0.7-2.33 1.17-3.75 1.17 -3.39 0-6.23-3.15-6.23-8.82 0-4.51 2.25-7.92 6.7-7.92 2.19 0 3.5 0.72 4.18 1.33 0.5 0.81 1.15 2.86 1.37 4.13M157.39 25.91c0 4.39-1.68 8.5-5.83 8.5s-5.77-3.87-5.77-8.5c0-4.34 1.66-8.15 5.77-8.15C155.77 17.76 157.39 21.63 157.39 25.91M160.67 25.91c0-5.12-3.81-9.2-9.11-9.2s-9.08 4.1-9.08 9.2c0 5.18 3.81 9.57 9.08 9.57C156.89 35.48 160.67 31.06 160.67 25.91M176.37 21.98v8.29L166.11 17.2h-4.64v0.84l1.31 0.31c0.78 0.18 0.87 0.18 0.87 0.64v11.39c0 0.81-0.09 2.29-0.14 2.95 -0.06 0.52-0.17 0.64-0.51 0.69l-1.7 0.29v0.81h6.61v-0.8l-2.3-0.34c-0.31-0.05-0.53-0.33-0.51-0.64 -0.08-0.84-0.13-2.14-0.13-2.98V20.15l12.04 15.33h0.63v-13.5c0-1.05 0.05-2.26 0.08-3.01 -0.04-0.33 0.2-0.62 0.52-0.66 0.02 0 0.04 0 0.06 0l1.68-0.29V17.2h-6.62v0.81l2.35 0.34c0.34 0.05 0.45 0.18 0.5 0.7 0.05 0.63 0.11 1.85 0.11 2.95"></path><path class="st20" d="M79.07 4.12L79.07 4.12V3.64H76.4v0.47l0.82 0.17c0.25 0.05 0.25 0.09 0.25 0.2v4.05c0 1.63-0.78 2.56-2.12 2.56 -1.17 0-1.86-0.92-1.86-2.45V4.51c0-0.14 0-0.18 0.23-0.23l0.76-0.16 0 0V3.64h-3.4v0.47l0.63 0.15c0.22 0.05 0.23 0.09 0.23 0.23v4.16c0 1.99 1.21 3.18 3.23 3.18 1.92 0 3.07-1.23 3.07-3.29V4.49c0-0.12 0-0.16 0.25-0.23L79.07 4.12zM89.01 4.24L89.8 4.1V3.64h-3.05v0.47l1.04 0.16C87.92 4.3 88 4.41 87.98 4.54c0.05 0.43 0.08 0.87 0.07 1.3V9.2l-4.32-5.54V3.64h-2.23v0.48l0.67 0.15h0.05c0.26 0.07 0.27 0.07 0.27 0.22v5c0 0.34-0.03 0.74-0.05 1.03l-0.02 0.32c-0.02 0.15-0.05 0.19-0.18 0.21l-0.78 0.14v0.49h3.05v-0.49l-1.05-0.16c-0.1 0-0.18-0.09-0.18-0.19 0-0.01 0-0.01 0-0.02 -0.02-0.25-0.07-0.85-0.07-1.33V5.28l5.06 6.52v0.02h0.49V5.8c0-0.39 0.03-0.76 0.04-1.03V4.76c0-0.07 0-0.14 0-0.19V4.49c-0.02-0.11 0.05-0.21 0.15-0.23 0.02 0 0.03 0 0.05 0M92.2 11.67h3.56V11.2l-0.73-0.16c-0.28-0.06-0.28-0.07-0.28-0.2V4.49c0-0.12 0-0.13 0.29-0.2l0.7-0.17 0 0V3.64h-3.56v0.47l0.74 0.18c0.28 0.06 0.28 0.07 0.28 0.2v6.34c0 0.13 0 0.14-0.29 0.2l-0.7 0.16 0 0L92.2 11.67 92.2 11.67zM105.84 4.13L105.84 4.13V3.64h-2.43v0.47l0.62 0.15c0.09 0.01 0.17 0.04 0.23 0.09 0.01 0.04 0 0.09-0.02 0.13l-2 5.34 -1.99-5.3c-0.03-0.04-0.03-0.1-0.02-0.15 0.05-0.06 0.13-0.09 0.2-0.09l0.67-0.15 0 0V3.64h-3.18v0.48l0.38 0.12h0.02c0.15 0.02 0.27 0.12 0.32 0.27l2.77 7.26 0 0h0.67l3.01-7.27c0.04-0.13 0.15-0.23 0.29-0.26L105.84 4.13zM110.58 11.04V7.8h1.3c0.36 0.3 0.6 0.71 0.67 1.17v0.04h0.34V5.99h-0.35v0.05c-0.08 0.45-0.32 0.85-0.67 1.14h-1.3v-2.9c0.26-0.04 0.52-0.07 0.78-0.07h0.11c0.6-0.01 1.19 0.11 1.73 0.37 0.29 0.47 0.49 0.99 0.6 1.53v0.04h0.45l-0.23-2.64V3.48l-0.07 0.02c-0.32 0.09-0.64 0.13-0.97 0.14h-4.97v0.47l0.73 0.16c0.28 0.06 0.28 0.08 0.28 0.21v6.34c0 0.13 0 0.14-0.29 0.2l-0.7 0.16 0 0v0.49h6.18l0.37-2.57V9.06h-0.44v0.04c-0.16 0.57-0.41 1.12-0.74 1.61 -0.48 0.26-1.02 0.4-1.57 0.39h-0.29c-0.31 0-0.61-0.02-0.91-0.07L110.58 11.04zM120.21 7.65h-0.67V4.31c0.2-0.06 0.41-0.1 0.63-0.11h0.21c1.12 0 1.67 0.53 1.67 1.62 0 1.17-0.63 1.82-1.83 1.82M122.59 11.67h2.05v-0.48l-0.71-0.2c-0.31-0.22-0.56-0.51-0.74-0.85l-0.72-1.17c-0.21-0.38-0.47-0.73-0.78-1.03 0.96-0.26 1.91-1.07 1.91-2.16 0-1.32-1.14-2.14-2.98-2.14H117v0.46l0.74 0.18c0.28 0.06 0.28 0.08 0.28 0.21v6.34c0 0.13 0 0.14-0.29 0.2l-0.71 0.16 0 0v0.48h3.51V11.2l-0.75-0.16c-0.25-0.05-0.25-0.07-0.25-0.22V8.25h0.85l1.13 1.99c0.26 0.54 0.62 1.02 1.05 1.43l0 0L122.59 11.67zM128.46 5.23c-0.04-0.65 0.45-1.21 1.1-1.25 0.04 0 0.08 0 0.12 0 0.51 0.01 1 0.25 1.33 0.64 0.25 0.45 0.43 0.95 0.52 1.46v0.05h0.46l-0.08-2.59V3.5h-0.34l-0.25 0.35c-0.5-0.27-1.05-0.41-1.62-0.4 -1.57 0-2.68 0.91-2.68 2.17 0 1.06 0.56 1.77 1.8 2.3l0.78 0.33c0.61 0.26 1.17 0.63 1.17 1.53 0.06 0.77-0.53 1.45-1.3 1.5 -0.08 0.01-0.16 0-0.24 0 -0.54 0.01-1.05-0.25-1.36-0.7 -0.24-0.56-0.41-1.14-0.49-1.75V8.78h-0.49v0.24c0 0.25 0 0.5 0.02 0.76 0.02 0.76 0.05 1.62 0.02 1.96v0.06h0.36l0.2-0.36c0.59 0.26 1.23 0.38 1.87 0.36 1.75 0 2.92-0.97 2.92-2.41 0-1.26-0.83-1.84-1.72-2.29l-1.12-0.52c-0.7-0.35-0.98-0.72-0.98-1.35M134.69 11.67h3.57V11.2l-0.74-0.16c-0.28-0.06-0.28-0.07-0.28-0.2V4.49c0-0.13 0-0.13 0.29-0.2l0.7-0.17 0 0V3.64h-3.57v0.47l0.74 0.18c0.28 0.06 0.28 0.07 0.28 0.2v6.34c0 0.13 0 0.14-0.29 0.2l-0.7 0.16 0 0V11.67zM147.42 6.15h0.45l-0.09-2.65V3.46l-0.07 0.03c-0.32 0.1-0.65 0.15-0.99 0.15h-4.9c-0.38 0.01-0.76-0.04-1.12-0.16l-0.07-0.02 -0.09 2.65v0.02h0.43V6.09c0.12-0.55 0.31-1.09 0.58-1.59 0.47-0.21 0.98-0.31 1.49-0.29h0.39v6.62c0 0.13 0 0.13-0.25 0.18l-0.86 0.18 0 0v0.49h3.8V11.2l-0.86-0.18h-0.04c-0.24-0.05-0.24-0.05-0.24-0.18V4.2h0.5c0.48-0.04 0.95 0.07 1.37 0.31 0.27 0.5 0.46 1.03 0.58 1.59L147.42 6.15zM157.1 4.24l0.39-0.11V3.64H155v0.47l0.59 0.13c0.11 0.01 0.22 0.04 0.31 0.11 0.01 0.05-0.01 0.1-0.04 0.14l-1.67 2.94 -1.88-2.99c-0.02-0.03-0.04-0.06-0.04-0.1 0.05-0.03 0.11-0.06 0.18-0.06l0.63-0.16 0 0V3.64h-3.19v0.48l0.39 0.14c0.14 0.05 0.26 0.15 0.32 0.29l2.41 3.8v2.46c0 0.1-0.03 0.15-0.29 0.2l-0.85 0.18 0 0v0.49h3.85V11.2l-0.88-0.19c-0.28-0.06-0.28-0.06-0.28-0.2v-2.7l2.18-3.58c0.08-0.16 0.22-0.26 0.39-0.29M167.44 11.24c-1.76 0-2.38-1.99-2.38-3.69 -0.03-0.84 0.16-1.68 0.54-2.43 0.54-1.02 1.81-1.41 2.83-0.86 0.37 0.2 0.67 0.5 0.86 0.86 0.38 0.75 0.57 1.59 0.55 2.43C169.83 9.25 169.2 11.24 167.44 11.24M171.5 7.55c0.05-2.21-1.7-4.04-3.91-4.09 -0.04 0-0.08 0-0.11 0h-0.05c-2.21-0.02-4.02 1.75-4.04 3.96 0 0.05 0 0.1 0 0.15 0 2.09 1.51 4.26 4.05 4.28l0 0c2.54 0 4.05-2.18 4.05-4.28M179.91 6.16l-0.23-2.64V3.49h-0.07c-0.42 0.1-0.86 0.14-1.29 0.14h-4.63V4.1l0.83 0.19c0.28 0.06 0.28 0.07 0.28 0.2v6.34c0 0.13 0 0.14-0.29 0.2l-0.7 0.16 0 0v0.49h3.85V11.2l-1.04-0.22h-0.07c-0.19-0.04-0.19-0.04-0.19-0.16V7.92h1.4c0.28 0.39 0.48 0.83 0.58 1.3v0.04h0.39V6.13h-0.39V6.2c-0.08 0.42-0.28 0.82-0.58 1.13h-1.4V4.32c0.26-0.06 0.52-0.1 0.78-0.1h0.14c0.56-0.01 1.11 0.12 1.61 0.37 0.29 0.47 0.49 0.99 0.6 1.53v0.04h0.43L179.91 6.16z"></path><path class="st20" d="M44.67 25.8c-0.76 5-4.79 8.68-9.45 10.53 -4.04 1.54-8.32 2.31-12.64 2.26 -4.32 0.04-8.6-0.73-12.64-2.26 -4.66-1.85-8.69-5.53-9.45-10.53C0.16 23.7 0 21.59 0 19.47c0.01-2.12 0.17-4.23 0.49-6.33C1.25 8.15 5.28 4.46 9.94 2.62c4.04-1.53 8.33-2.29 12.65-2.26 4.31-0.04 8.6 0.73 12.63 2.26 4.65 1.85 8.68 5.53 9.44 10.53 0.32 2.1 0.48 4.21 0.49 6.33 -0.01 2.12-0.17 4.23-0.49 6.32M33.93 14.06c-0.11-2.14-0.33-4.41-1.49-6.14 -2.26-3.39-6.12-4.78-9.85-4.74s-7.6 1.35-9.87 4.73c-1.17 1.72-1.38 4-1.49 6.14 -0.08 1.57-0.14 3.49-0.14 5.43s0.05 3.86 0.12 5.42c0.12 2.14 0.36 4.41 1.52 6.14 2.27 3.38 6.12 4.7 9.86 4.73 3.75 0.04 7.59-1.35 9.87-4.73 1.17-1.73 1.39-3.99 1.5-6.14 0.09-1.57 0.06-3.45 0.06-5.39s0-3.89-0.07-5.46"></path></svg>
